# xmcd
#
# Track frame offsets:
#	150
#	12697
#	24365
#	36988
#	51855
#	63930
#	76634
#	90398
#	102327
#	113586
#	125591
#	137721
#	149654
#	162674
#	174880
#	187227
#	199894
#	212120
#	223194
#	232463
#	245175
#	255830
#	268647
#	281177
#	293527
#
# Disc length: 4058 seconds
#
# Revision: 1
# Processed by: cddbd v1.5.2PL0 Copyright (c) Steve Scherf et al.
# Submitted via: audiograbber 1.83.01
#
DISCID=830fd819
DTITLE=Various Artist - Boogie Uproar - Gems From The Peacock Vaults  [CD1)
DYEAR=2014
DGENRE=Oldies
TTITLE0=Clarence 'Gatemouth' Brown - Boogie Uproar 
TTITLE1=Willie Mae 'Big Mama' Thornton and Johnny Otis Orchestra - Rock A Bye Bab
TTITLE1=y 
TTITLE2=Memphis Slim and His Orchestra - Living Like A King 
TTITLE3=Paul Monday With The Bill Harvey Orchestra - Tired Of This Life I'm Liv
TTITLE3=ing 
TTITLE4=Floyd Dixon - Let's Dance 
TTITLE5=Walter Brown and McShann's Orchestra - ABC Blues 
TTITLE6=Betty Jean Washington - Betty Jean Blues 
TTITLE7=Deuces Of Rhythm With The Tempo Toppers - Fool At The Wheel 
TTITLE8=Edgar Blanchard and The Gondoliers - Creole Gal Blues 
TTITLE9=Elmore Nixon And His Orchestra - A Hepcat's Advice 
TTITLE10=Andrew Tibbs and Cherokee Conyer's Orchestra - Mother's Letter 
TTITLE11=Bea Johnson and Jim Wynn and His Band - No Letter Blues 
TTITLE12=Smilin 'Smokey' Lynn and Bill Harvey Orchestra - Leave My Girl Alone 
TTITLE13=Marie Adams With The Bill Harvey Orchestra - I'm Gonna Play The Honky 
TTITLE13=Tonks 
TTITLE14=Bells Of Joy - Let's Talk About Jesus 
TTITLE15=Gladys Hill and Al Grey's Allstars - Please Don't Touch My Bowl 
TTITLE16=Jimmy McCracklin and His Orchestra - She's Gone 
TTITLE17=Joe 'Papoose' Fritz - I'm Not Suspicious But 
TTITLE18=Willie Mae Thornton and Bill Harvey's Band - Let Your Tears Fall Baby 
TTITLE19=Clarence 'Gatemouth' Brown with Jimmy Mc Cracklin's Orchestra - Dirty 
TTITLE19=Work At The Crossroads 
TTITLE20=Johnny Otis Orchestra - Young Girl 
TTITLE21=Sonny Parker With Gladys Hampton's Blues Boys - She Sets My Soul On Fi
TTITLE21=re 
TTITLE22=Floyd Dixon - Sad Journey 
TTITLE23=Memphis Slim and His Orchestra - The Girl I Love 
TTITLE24=Pete 'Guitar' Lewis - Goin' Crazy 
EXTD=
EXTT0=
EXTT1=
EXTT2=
EXTT3=
EXTT4=
EXTT5=
EXTT6=
EXTT7=
EXTT8=
EXTT9=
EXTT10=
EXTT11=
EXTT12=
EXTT13=
EXTT14=
EXTT15=
EXTT16=
EXTT17=
EXTT18=
EXTT19=
EXTT20=
EXTT21=
EXTT22=
EXTT23=
EXTT24=
PLAYORDER=
